<?xml version="1.0" standalone="no"?>
<!DOCTYPE svg PUBLIC "-//W3C//DTD SVG 20010904//EN"
 "http://www.w3.org/TR/2001/REC-SVG-20010904/DTD/svg10.dtd">
<svg version="1.0" xmlns="http://www.w3.org/2000/svg"
 width="300.000000pt" height="354.000000pt" viewBox="0 0 300.000000 354.000000"
 preserveAspectRatio="xMidYMid meet">
<metadata>
Created by potrace 1.10, written by Peter Selinger 2001-2011
</metadata>
<g transform="translate(0.000000,354.000000) scale(0.100000,-0.100000)"
fill="#ffffff" stroke="none">
<path d="M2349 3520 c-14 -11 -136 -89 -270 -175 -224 -144 -247 -156 -284
-153 -36 4 -90 -27 -755 -423 -694 -413 -716 -428 -737 -470 -12 -24 -20 -45
-19 -47 3 -3 572 336 824 490 90 55 165 98 168 95 3 -2 -63 -46 -145 -98 -99
-61 -154 -102 -161 -119 -8 -18 -105 -81 -358 -231 -346 -205 -346 -205 -359
-247 -12 -45 -9 -50 16 -28 9 7 151 93 316 191 165 98 306 183 313 190 29 26
-5 22 -46 -6 -46 -31 -52 -34 -52 -21 0 5 38 32 84 61 50 30 92 64 103 82 10
17 54 53 98 81 133 85 275 181 275 185 0 3 -16 -5 -36 -17 -19 -12 -37 -20
-40 -17 -3 3 15 17 41 32 25 15 44 29 42 32 -3 2 -27 -9 -55 -26 -28 -16 -53
-27 -56 -24 -3 4 -6 2 -6 -4 0 -5 -24 -23 -52 -38 -29 -16 -88 -50 -131 -77
-43 -26 -81 -48 -83 -48 -6 0 -202 -117 -237 -142 -29 -20 -42 -21 -29 -2 8
12 156 104 168 104 4 0 15 6 23 14 9 8 48 33 88 55 39 22 89 50 110 62 21 12
47 27 58 33 11 6 40 25 65 41 60 40 74 48 150 92 63 36 220 130 270 162 14 8
27 16 30 16 3 1 21 11 40 23 20 13 51 22 73 22 39 0 112 41 383 216 49 32 95
57 101 57 7 0 13 4 13 9 0 4 7 8 15 8 18 0 4 -37 -83 -220 -64 -136 -80 -176
-64 -166 5 3 12 -3 15 -14 4 -14 -4 -25 -29 -41 -34 -21 -46 -36 -64 -83 -14
-37 -4 -32 24 13 15 24 47 52 82 71 l56 33 -33 14 c-18 7 -35 15 -36 17 -2 2
44 103 102 226 58 123 104 224 103 226 -2 1 -15 -6 -29 -16z m-1649 -989 c0
-5 -11 -16 -25 -25 -14 -9 -25 -14 -25 -11 0 3 -6 1 -12 -5 -22 -19 -82 -54
-98 -56 -22 -4 27 31 87 63 29 16 53 31 53 36 0 4 5 7 10 7 6 0 10 -4 10 -9z
m90 -70 c0 -8 -56 -48 -85 -60 -9 -4 -123 -71 -155 -91 -8 -5 -44 -26 -80 -47
-36 -20 -67 -40 -70 -43 -12 -15 -120 -69 -120 -61 0 6 28 26 63 46 34 20 71
41 82 48 10 7 49 30 85 51 36 21 76 46 90 55 14 8 28 16 31 16 6 0 70 39 134
81 25 16 25 16 25 5z m-275 -50 c-3 -6 -11 -11 -17 -11 -6 0 -6 6 2 15 14 17
26 13 15 -4z m-56 -29 c-13 -9 -26 -15 -28 -13 -2 1 -7 -2 -10 -7 -10 -15 -94
-65 -90 -53 5 13 142 101 148 95 3 -2 -6 -12 -20 -22z"/>
<path d="M1646 3017 l-629 -402 -115 -247 -115 -248 -157 0 -156 0 -196 -317
-195 -318 203 -3 202 -2 -120 -258 c-151 -324 -161 -345 -166 -354 -2 -5 194
-8 435 -8 l439 0 144 310 145 310 37 0 37 0 -59 -122 c-32 -68 -172 -366 -310
-663 -139 -297 -257 -548 -262 -558 -12 -24 -90 -71 628 382 l609 384 405 869
c223 478 407 873 408 879 2 5 -166 9 -435 9 l-438 -1 -125 -269 -125 -270 -39
0 c-29 0 -36 3 -29 13 6 6 137 282 293 612 155 330 291 617 301 638 11 20 18
37 17 37 -2 -1 -286 -182 -632 -403z m564 318 c0 -6 -105 -229 -239 -507 -33
-70 -61 -130 -61 -133 0 -3 -38 -83 -84 -178 -131 -269 -178 -376 -174 -395 2
-10 14 -18 32 -20 58 -7 72 4 107 82 18 41 38 72 43 69 5 -3 6 -1 3 5 -10 15
3 43 16 35 5 -3 7 -1 4 4 -6 10 38 121 52 133 3 3 7 12 9 20 2 8 21 52 42 98
l39 82 410 0 c226 0 411 -2 411 -5 0 -3 -25 -58 -56 -123 -73 -154 -96 -203
-135 -287 -18 -38 -35 -72 -38 -75 -3 -3 -7 -12 -9 -20 -1 -8 -15 -42 -31 -75
-53 -110 -114 -239 -138 -295 -42 -93 -128 -278 -206 -440 -30 -63 -65 -137
-77 -165 -12 -27 -42 -91 -66 -141 -41 -83 -49 -93 -102 -124 -31 -19 -63 -40
-70 -47 -7 -7 -19 -13 -27 -13 -7 0 -15 -3 -17 -7 -3 -9 -114 -83 -123 -83 -3
0 -56 -33 -118 -73 -125 -81 -243 -157 -317 -202 -65 -39 -168 -104 -255 -160
-121 -77 -156 -97 -161 -92 -3 3 15 49 40 102 25 54 46 101 46 106 0 5 5 9 12
9 6 0 9 3 6 6 -5 5 24 72 132 299 40 85 111 237 150 322 18 40 36 73 40 73 4
0 7 6 7 14 0 8 13 43 30 78 17 35 43 91 58 125 15 35 32 60 38 56 5 -3 7 0 5
8 -3 8 0 28 7 46 12 27 11 33 -4 47 -14 13 -32 15 -84 7 -8 -1 -127 -244 -127
-260 0 -5 -7 -14 -15 -21 -8 -7 -15 -19 -15 -27 0 -7 -31 -79 -70 -158 l-70
-145 -409 0 -409 0 67 147 c38 82 90 193 116 248 26 55 55 121 65 146 18 45
18 48 1 63 -15 13 -46 16 -189 16 -190 0 -186 -2 -137 65 12 17 48 74 81 128
32 54 78 128 101 165 23 37 54 88 69 115 15 26 31 47 36 47 4 0 8 6 8 13 0 8
8 24 19 35 17 21 27 22 168 22 109 0 153 3 160 13 6 6 34 66 64 132 29 66 57
122 61 123 4 2 8 9 8 16 0 7 20 54 45 105 25 50 45 95 45 100 0 8 182 129 210
139 8 3 17 8 20 11 6 7 87 61 175 117 33 20 115 73 183 116 68 43 125 78 128
78 2 0 26 16 54 36 27 20 50 33 50 30 0 -3 11 5 24 18 14 12 42 31 63 42 21
10 51 29 66 42 16 12 35 22 43 22 8 0 14 5 14 10 0 6 6 10 14 10 8 0 16 4 18
8 3 9 99 70 111 71 4 1 7 -1 7 -4z"/>
<path d="M1960 3109 c0 -11 -50 -33 -65 -30 -5 2 -7 0 -3 -4 6 -6 -180 -130
-267 -179 -29 -16 -106 -67 -119 -77 -6 -5 -31 -22 -56 -38 -25 -15 -78 -49
-118 -75 -40 -25 -75 -46 -78 -46 -3 0 -10 -5 -17 -10 -7 -6 -41 -30 -77 -53
-61 -39 -68 -48 -112 -137 -26 -52 -60 -124 -75 -159 -15 -35 -50 -109 -78
-165 l-50 -101 -150 -3 c-124 -2 -152 -5 -168 -20 -20 -18 -70 -91 -105 -152
-11 -19 -50 -84 -87 -144 -67 -109 -67 -110 -47 -127 17 -14 48 -17 179 -18
86 -1 158 -3 159 -4 1 -1 -5 -18 -13 -37 -9 -19 -17 -37 -18 -40 -1 -5 -31
-69 -126 -268 -27 -57 -49 -105 -49 -108 0 -2 -13 -31 -29 -63 -29 -59 -29
-60 -9 -78 18 -16 44 -17 321 -15 180 1 305 6 312 12 10 8 116 213 120 230 0
3 10 25 21 50 12 25 34 74 50 110 16 35 45 96 64 135 l35 70 133 3 c83 2 132
-1 132 -7 0 -11 -28 -75 -96 -219 -24 -51 -44 -97 -44 -102 0 -6 -5 -10 -10
-10 -6 0 -9 -3 -8 -7 2 -11 -10 -38 -77 -178 -32 -66 -59 -125 -60 -131 -2 -6
-28 -62 -58 -125 -160 -333 -162 -337 -142 -360 16 -16 19 -16 75 18 33 19 64
41 71 49 6 8 15 14 20 14 5 0 46 25 93 55 46 30 89 55 95 55 6 0 11 5 11 10 0
6 5 10 11 10 6 0 25 11 43 25 18 14 35 25 39 25 6 0 106 64 124 80 7 6 15 10
18 10 3 0 37 21 77 47 235 150 219 137 263 233 17 36 32 67 35 70 3 3 6 10 7
15 3 14 131 288 140 300 4 6 19 37 32 70 35 86 133 289 144 296 5 3 8 9 7 13
-3 11 42 116 49 116 4 0 8 6 8 13 0 6 21 56 46 111 26 54 47 103 47 108 0 5 4
7 8 4 4 -2 8 4 9 14 1 10 33 84 72 165 75 155 84 190 51 200 -28 9 -606 9
-620 0 -7 -4 -36 -58 -65 -119 -29 -61 -76 -160 -105 -221 -29 -60 -54 -116
-56 -123 -1 -7 -10 -24 -18 -38 -16 -23 -20 -24 -134 -24 -128 0 -150 6 -134
36 6 11 20 39 31 64 11 25 45 99 76 165 32 66 72 152 90 190 18 39 63 132 99
208 36 76 66 140 66 142 0 2 25 55 55 118 51 106 66 156 48 158 -5 0 -16 2
-25 4 -10 2 -18 -1 -18 -6z m33 -21 c-9 -11 -495 -1037 -510 -1076 -4 -10 30
-12 163 -10 l167 3 125 268 125 267 304 0 c166 0 303 -3 303 -7 0 -5 -162
-354 -360 -778 l-359 -770 -214 -135 c-514 -325 -642 -405 -648 -408 -4 -2
114 256 262 573 148 316 269 577 269 580 0 3 -75 4 -166 3 l-167 -3 -142 -305
-142 -305 -307 -3 c-168 -1 -306 -1 -306 1 0 4 227 491 268 575 l20 42 -195 0
c-174 0 -194 2 -183 15 7 9 63 98 125 198 l112 182 164 3 164 3 123 267 124
267 415 264 c228 146 425 272 436 282 25 21 44 25 30 7z"/>
<path d="M1527 2761 l-388 -248 -127 -271 -126 -272 -164 -2 -164 -3 -104
-168 -104 -168 190 3 c105 2 190 3 190 3 0 -1 -65 -139 -144 -308 l-144 -307
272 0 271 1 141 305 140 305 207 2 c114 1 206 0 204 -3 -39 -78 -514 -1095
-512 -1098 1 -1 173 105 381 237 l379 239 347 744 c191 408 347 745 348 748 0
3 -122 3 -271 0 l-271 -5 -121 -262 -122 -263 -209 0 c-165 0 -206 3 -199 13
6 6 102 206 213 442 111 237 220 465 241 508 21 42 37 77 36 77 -1 -1 -177
-112 -390 -249z m321 162 c-2 -5 -12 -26 -22 -48 -10 -22 -42 -89 -71 -150
-29 -60 -65 -137 -80 -170 -15 -33 -56 -118 -90 -190 -34 -71 -80 -168 -102
-215 -22 -47 -49 -105 -61 -130 -19 -41 -19 -46 -4 -57 9 -7 34 -13 56 -14 25
0 -42 -18 -169 -45 -162 -33 -664 -155 -874 -211 -25 -6 -24 -6 6 38 17 24 54
81 83 127 29 45 57 82 63 82 7 1 76 1 153 0 120 -1 144 2 158 16 21 21 86 148
86 169 0 8 3 15 8 15 4 0 13 15 21 33 8 17 28 64 46 102 18 39 49 105 68 148
27 57 44 82 67 95 17 9 41 25 52 35 12 9 25 17 31 17 5 0 26 14 47 30 21 17
40 30 43 30 2 0 44 26 93 58 50 31 99 63 109 69 11 7 56 35 100 62 44 28 100
64 125 81 44 29 66 38 58 23z m724 -449 c4 -3 3 -14 -2 -23 -8 -15 -21 -44
-83 -181 -13 -30 -37 -82 -53 -115 -15 -33 -28 -64 -29 -69 0 -13 -37 -22
-120 -29 -39 -4 -122 -13 -185 -22 -63 -8 -140 -18 -171 -21 l-57 -7 32 65
c17 36 34 63 38 61 4 -2 5 3 2 11 -3 9 -1 16 5 16 6 0 11 6 11 13 0 8 13 40
29 73 16 32 43 93 62 134 18 41 37 80 42 87 9 13 467 20 479 7z m-192 -430 c0
-8 -36 -86 -106 -231 -35 -73 -64 -135 -64 -139 0 -3 -19 -45 -41 -92 -115
-242 -157 -331 -212 -452 -19 -41 -46 -86 -60 -100 -42 -40 -67 -60 -67 -55 0
3 -6 1 -12 -4 -40 -32 -150 -101 -163 -101 -8 0 -15 -4 -15 -9 0 -5 -9 -13
-20 -16 -11 -3 -26 -12 -32 -19 -20 -19 -92 -61 -100 -58 -5 1 -8 -3 -8 -8 0
-6 -5 -10 -10 -10 -6 0 -20 -8 -31 -19 -11 -10 -40 -29 -65 -41 -24 -13 -49
-29 -55 -37 -6 -7 -20 -13 -29 -13 -10 0 -20 -5 -22 -12 -5 -13 -38 -20 -38
-7 0 4 18 43 39 86 21 43 46 94 54 113 15 34 80 175 137 295 15 33 47 101 70
150 22 50 45 97 51 105 5 8 13 24 18 35 9 22 35 80 70 157 43 97 36 100 -191
102 -104 0 -193 -3 -205 -9 -13 -6 -35 -35 -49 -65 -75 -155 -134 -281 -158
-335 -14 -33 -30 -59 -35 -58 -5 1 -7 -5 -5 -15 2 -9 -11 -44 -29 -77 l-32
-60 -238 -2 c-262 -2 -254 -4 -217 62 11 20 20 40 20 46 0 6 32 75 70 153 39
79 70 148 70 155 0 6 4 11 9 11 5 0 11 10 14 23 2 12 16 47 30 78 38 84 32 88
-127 92 -92 2 -131 6 -134 15 -2 7 0 12 5 11 4 -1 15 0 23 3 8 3 44 13 80 22
36 9 90 23 120 31 30 9 68 18 84 20 25 3 82 18 171 45 17 5 41 11 55 13 95 17
156 31 165 37 6 4 33 10 60 14 28 3 77 12 110 20 33 8 62 13 66 10 4 -2 23 3
42 11 19 8 60 15 91 16 31 1 59 5 61 9 2 4 59 8 126 9 106 2 124 5 138 22 9
10 32 21 51 23 44 6 127 17 160 23 14 2 48 6 75 9 28 2 73 8 100 13 57 9 135
12 135 5z m-1930 -374 c0 -5 -4 -10 -10 -10 -5 0 -10 5 -10 10 0 6 5 10 10 10
6 0 10 -4 10 -10z"/>
<path d="M1606 3203 c-43 -4 -103 -37 -520 -285 -259 -155 -519 -310 -578
-344 -90 -54 -110 -71 -132 -110 -15 -26 -25 -48 -24 -50 2 -1 102 57 223 130
121 72 416 248 655 390 239 143 439 263 445 268 5 5 3 7 -5 6 -8 -1 -37 -3
-64 -5z m-28 -30 c-10 -2 -18 -8 -18 -13 0 -5 -19 -18 -42 -30 -50 -23 -101
-52 -108 -61 -8 -9 -127 -79 -134 -79 -4 0 -22 -11 -40 -25 -18 -14 -36 -25
-40 -25 -3 0 -30 -15 -59 -34 -79 -50 -191 -115 -200 -115 -4 -1 -17 -10 -30
-22 -20 -19 -72 -45 -72 -37 0 2 -11 -7 -25 -19 -13 -13 -51 -37 -84 -54 -33
-17 -66 -38 -74 -45 -7 -8 -19 -14 -26 -14 -6 0 -17 -5 -24 -12 -7 -7 -38 -27
-70 -45 -31 -18 -70 -39 -85 -48 -16 -9 -31 -14 -33 -12 -6 6 92 67 106 67 6
0 10 5 10 11 0 5 4 8 9 5 5 -4 11 -3 13 2 5 11 103 72 116 72 7 0 12 4 12 9 0
5 9 12 19 16 11 3 34 16 53 29 18 12 58 35 88 51 30 16 66 37 80 46 107 68
156 98 245 145 28 15 52 30 53 35 2 5 7 9 12 9 10 0 193 112 201 123 3 4 12 9
20 11 8 1 36 17 63 34 28 18 57 31 65 31 12 -1 12 -2 -1 -6z"/>
<path d="M1374 3186 c-46 -9 -95 -32 -185 -86 -68 -40 -234 -138 -369 -218
-135 -80 -253 -153 -264 -161 -26 -22 -113 -136 -95 -125 47 29 868 519 934
558 83 48 80 52 -21 32z m-24 -31 c0 -5 -54 -34 -67 -37 -5 0 -12 -7 -18 -14
-5 -7 -37 -27 -69 -44 -33 -17 -75 -42 -94 -55 -20 -13 -39 -22 -44 -19 -4 3
-8 1 -8 -4 0 -5 -31 -28 -70 -50 -38 -22 -70 -37 -70 -32 0 10 245 160 261
160 5 0 9 4 9 8 0 5 15 16 33 25 17 9 52 28 77 42 44 24 60 30 60 20z m-450
-258 c0 -10 -110 -87 -125 -87 -3 0 -41 -22 -85 -50 -44 -27 -83 -50 -87 -50
-3 0 -15 -7 -25 -17 -11 -10 -18 -12 -18 -4 0 11 24 28 102 71 15 8 60 35 100
59 40 25 75 44 77 42 2 -2 8 4 13 13 5 9 13 14 18 11 4 -3 10 2 14 10 7 18 16
20 16 2z"/>
<path d="M1023 3076 c-62 -30 -134 -69 -160 -87 -98 -66 -184 -132 -178 -137
2 -3 13 2 22 10 10 8 108 68 218 133 264 156 278 168 98 81z"/>
<path d="M2190 2970 c-52 -32 -96 -63 -98 -69 -5 -15 22 -4 93 39 69 41 99 55
90 40 -3 -6 -13 -10 -21 -10 -8 0 -14 -4 -14 -8 0 -5 -34 -28 -75 -52 -118
-67 -149 -93 -162 -134 -6 -20 -9 -36 -7 -36 2 0 15 17 28 38 18 29 58 59 170
125 80 49 146 90 146 92 0 3 -12 11 -27 18 -27 14 -33 11 -123 -43z"/>
<path d="M2200 2854 c-101 -62 -186 -117 -188 -124 -2 -6 14 -2 37 9 45 23 53
19 19 -9 -20 -16 -21 -20 -8 -35 11 -13 25 -16 60 -13 43 5 97 33 274 141 58
36 94 48 81 27 -4 -6 -11 -8 -16 -5 -5 4 -9 1 -9 -4 0 -6 -4 -11 -9 -11 -13 0
-140 -78 -169 -104 -22 -19 -22 -21 -6 -33 42 -31 87 -16 257 87 28 17 36 18
31 6 -3 -8 -13 -18 -22 -21 -10 -3 -30 -16 -45 -28 -62 -51 20 -79 104 -36 39
20 41 20 54 2 11 -15 31 -19 122 -21 59 -2 112 -7 116 -12 5 -4 -10 -50 -33
-100 -22 -51 -39 -98 -36 -105 2 -7 -5 -21 -16 -32 -11 -10 -27 -33 -35 -52
-20 -47 -5 -60 40 -36 19 10 39 16 45 14 7 -2 -23 -25 -67 -51 -66 -40 -81
-54 -95 -89 -22 -54 -13 -62 12 -12 16 29 40 49 106 88 47 28 85 55 86 61 0 5
-6 19 -14 29 -13 18 -15 17 -60 -13 -26 -18 -49 -32 -52 -32 -14 0 38 78 60
89 20 11 23 18 16 32 -12 21 -8 33 49 148 22 46 41 86 41 88 0 1 -57 3 -126 3
-123 0 -127 1 -146 25 l-20 26 -43 -26 c-29 -16 -58 -25 -87 -25 l-43 0 68 41
69 41 -22 23 -21 23 -105 -64 c-89 -55 -111 -64 -151 -64 l-48 0 75 43 c130
74 190 111 190 118 0 4 -10 13 -23 22 -21 14 -31 10 -186 -84 -143 -87 -169
-99 -209 -99 -46 0 -45 0 146 114 l193 114 -28 19 -28 19 -185 -112z m178 62
c-26 -14 -217 -128 -253 -152 -14 -9 -25 -12 -25 -6 0 6 26 25 58 43 31 18 65
39 75 47 9 8 17 12 17 8 0 -4 17 6 37 23 20 16 40 28 45 25 4 -3 8 0 8 5 0 6
7 11 15 11 8 0 15 4 15 10 0 5 7 7 15 3 13 -4 11 -8 -7 -17z"/>
<path d="M904 2473 c-18 -38 -42 -55 -345 -237 -310 -185 -327 -197 -332 -228
-2 -18 -3 -34 -2 -36 3 -3 112 60 140 82 33 26 -4 19 -54 -9 -24 -14 -46 -23
-49 -20 -3 3 -3 6 -1 8 19 15 260 158 275 163 10 4 33 18 50 31 17 13 34 23
39 23 4 0 38 19 74 43 36 24 82 52 101 63 19 10 37 21 40 24 3 3 17 13 32 23
16 10 35 34 43 54 22 52 13 66 -11 16z"/>
<path d="M731 2294 c-41 -24 -89 -52 -106 -60 -42 -20 -77 -53 -72 -67 2 -7
25 -13 51 -15 79 -5 208 71 236 139 18 42 4 48 -16 7 -21 -45 -148 -123 -216
-133 -27 -4 -48 -5 -48 -2 0 2 53 36 118 75 138 83 164 101 142 101 -8 1 -48
-20 -89 -45z"/>
<path d="M2813 2251 c-51 -32 -99 -63 -107 -71 -23 -18 -20 -33 4 -20 13 7 20
7 20 1 0 -6 -15 -17 -34 -26 -44 -21 -71 -51 -91 -100 l-16 -40 20 25 c11 14
21 30 21 37 0 6 67 52 149 103 l150 91 -11 29 c-5 17 -11 30 -11 29 -1 -1 -43
-27 -94 -58z m87 11 c0 -5 -20 -19 -45 -31 -24 -12 -47 -26 -50 -32 -4 -5 -11
-7 -16 -4 -5 4 -12 -1 -15 -9 -3 -9 -12 -16 -20 -16 -25 0 -15 15 24 35 20 11
53 30 72 42 37 24 50 28 50 15z"/>
<path d="M2830 2139 c-188 -117 -222 -140 -216 -146 8 -8 47 12 107 54 25 18
49 30 52 26 4 -3 7 -1 7 5 0 7 7 12 15 12 8 0 15 5 15 11 0 5 4 8 9 5 5 -3 14
1 21 9 7 8 18 15 25 15 6 0 20 9 30 20 21 24 37 26 29 5 -4 -8 -12 -15 -20
-15 -8 0 -14 -4 -14 -10 0 -5 -5 -10 -10 -10 -6 0 -41 -20 -79 -45 -38 -25
-71 -45 -75 -45 -4 0 -19 -8 -34 -18 -15 -11 -53 -35 -84 -55 -55 -35 -94 -85
-85 -110 2 -7 12 4 21 23 15 29 51 55 214 154 108 66 198 120 199 120 7 4 -12
56 -21 55 -6 -1 -54 -28 -106 -60z"/>
<path d="M2764 1975 c-244 -148 -255 -155 -231 -155 10 0 42 16 72 35 30 19
55 31 55 26 0 -5 -43 -37 -95 -70 -91 -59 -132 -105 -122 -134 2 -7 12 4 21
23 15 30 56 58 266 185 151 91 249 156 249 165 -1 53 -9 50 -215 -75z m186 76
c0 -6 -11 -16 -25 -23 -51 -27 -191 -112 -224 -136 -19 -14 -32 -19 -29 -11 2
7 23 25 46 39 22 14 74 45 114 70 69 42 110 67 116 69 1 1 2 -3 2 -8z"/>
<path d="M360 2018 c-17 -23 -54 -55 -82 -73 -42 -25 -54 -38 -59 -65 -9 -43
-5 -48 21 -25 16 14 17 20 8 27 -15 9 28 49 72 68 14 6 38 33 53 60 34 61 28
65 -13 8z"/>
<path d="M2715 1823 c-148 -90 -272 -166 -274 -169 -2 -2 2 -4 10 -4 9 0 41
15 72 34 31 19 57 32 57 29 0 -4 10 3 23 14 12 11 45 33 72 48 28 16 71 42 97
58 25 16 49 28 51 26 3 -2 16 6 29 17 34 31 118 78 118 65 0 -10 -130 -91
-146 -91 -4 0 -14 -7 -23 -16 -9 -8 -86 -56 -171 -107 -85 -50 -156 -95 -158
-99 -2 -4 -9 -8 -16 -8 -17 0 -71 -49 -85 -77 -17 -33 -14 -63 7 -63 9 0 49
21 87 45 39 24 86 53 106 64 20 11 72 43 115 71 44 27 83 50 88 50 4 0 25 12
45 28 20 15 54 36 76 47 22 11 42 22 45 26 9 10 40 18 40 10 0 -8 -95 -63
-106 -61 -4 1 -10 -2 -13 -7 -8 -12 -208 -137 -221 -138 -5 -1 -72 -43 -247
-155 -82 -53 -122 -102 -109 -136 8 -20 25 -17 71 11 22 13 69 41 105 62 36
20 67 39 70 42 3 3 22 15 43 25 21 11 48 28 59 38 12 10 27 18 35 18 7 0 13 4
13 9 0 5 8 12 18 15 20 8 47 23 89 54 17 12 34 22 37 22 3 0 35 18 72 41 36
22 68 38 70 36 6 -5 -72 -57 -86 -57 -5 0 -10 -4 -10 -10 0 -5 -5 -10 -10 -10
-6 0 -35 -16 -65 -35 -30 -19 -55 -31 -55 -27 0 4 -4 1 -9 -6 -7 -11 -105 -74
-201 -129 -14 -8 -45 -27 -70 -43 -25 -16 -84 -52 -131 -80 -87 -50 -114 -78
-129 -130 -7 -26 -6 -28 19 -26 25 3 73 30 293 164 57 35 110 67 118 72 8 5
59 36 113 70 54 33 100 60 103 60 3 0 21 12 40 26 19 15 34 23 34 19 0 -4 7
-2 15 5 8 7 15 9 15 4 0 -5 -12 -16 -28 -25 -88 -53 -199 -120 -212 -129 -16
-11 -30 -20 -106 -63 -46 -25 -249 -153 -285 -178 -10 -7 -20 -11 -24 -10 -4
2 -11 -1 -14 -6 -3 -5 -33 -26 -67 -46 -45 -27 -65 -47 -78 -76 -19 -41 -15
-61 10 -61 9 0 59 27 112 60 53 34 102 61 107 62 6 1 15 6 22 12 33 29 43 36
43 31 0 -3 15 5 33 19 17 13 43 29 57 35 27 12 62 32 70 42 4 4 239 149 304
187 5 2 7 -1 5 -7 -3 -7 -8 -12 -13 -11 -5 1 -12 -2 -15 -7 -8 -13 -87 -65
-141 -94 -25 -13 -49 -30 -53 -36 -4 -7 -14 -13 -21 -13 -7 0 -42 -19 -77 -42
-116 -75 -307 -188 -318 -188 -6 0 -11 -4 -11 -8 0 -9 -85 -60 -85 -52 0 3 -7
-1 -15 -8 -53 -45 -128 -97 -208 -146 -51 -31 -105 -65 -120 -75 -15 -10 -83
-54 -152 -96 -69 -43 -167 -105 -219 -139 -52 -34 -127 -81 -168 -106 -40 -25
-165 -103 -278 -173 -184 -116 -245 -149 -245 -134 0 8 39 94 132 294 71 152
87 196 79 210 -8 16 -4 24 24 46 36 29 64 92 47 109 -9 9 -109 -33 -122 -52
-8 -11 -51 -32 -56 -27 -6 6 123 92 151 101 11 4 28 18 39 32 15 22 16 28 5
35 -39 25 -110 3 -223 -69 -27 -18 -52 -29 -55 -26 -7 6 39 43 54 44 6 0 16 9
22 20 11 16 10 21 -6 30 -30 16 -78 12 -118 -10 -47 -25 -55 -25 -71 0 -12 19
-23 20 -252 20 -166 0 -240 3 -240 11 0 6 45 107 101 225 55 118 98 222 95
230 -3 7 -12 14 -21 14 -20 0 -19 19 2 27 17 7 41 25 70 52 8 7 13 21 11 30
-4 22 -69 27 -105 8 -24 -13 -29 -13 -39 1 -8 12 -33 16 -100 18 -49 1 -101 2
-116 3 l-28 1 19 33 c29 51 182 301 192 312 13 17 30 67 20 60 -10 -6 -261
-409 -261 -419 0 -3 58 -6 130 -6 97 0 130 -3 130 -12 1 -36 17 -40 58 -14 42
26 92 35 92 16 0 -6 -27 -28 -60 -48 -54 -33 -60 -40 -54 -62 8 -33 9 -34 34
-20 12 7 21 8 19 3 -7 -14 -80 -170 -155 -328 l-71 -150 261 -5 c144 -3 257
-7 252 -8 -5 -1 3 -11 17 -22 l26 -21 40 26 c29 18 54 25 88 25 l48 0 -73 -41
-73 -40 25 -20 c13 -10 26 -19 29 -19 2 0 49 27 103 60 81 50 106 60 143 60
l44 0 -128 -77 -127 -76 28 -16 c16 -8 33 -14 37 -13 4 1 44 24 87 52 44 27
80 47 80 45 0 -2 -7 -20 -16 -39 -11 -23 -34 -44 -67 -62 l-50 -27 30 -16 30
-16 -133 -280 c-73 -154 -133 -284 -133 -288 -1 -4 18 5 42 21 40 28 145 94
897 567 173 108 365 230 425 270 61 39 281 176 491 303 361 220 381 234 392
269 6 20 10 39 8 41 -2 2 -28 -12 -57 -31 -30 -19 -200 -123 -379 -232 -179
-109 -338 -206 -353 -217 -36 -26 -44 -17 -21 23 15 24 114 89 424 278 403
245 405 246 411 284 3 21 3 36 0 35 -4 -2 -88 -52 -186 -113 -99 -60 -270
-164 -380 -231 -110 -67 -202 -121 -204 -119 -2 2 5 19 16 36 14 26 101 83
390 258 364 221 371 227 376 261 2 19 4 36 3 37 -1 2 -627 -377 -678 -411 -32
-21 -34 -18 -12 26 13 27 73 68 353 237 336 203 337 204 337 237 0 19 -1 34
-2 34 0 0 -140 -85 -310 -188 -170 -104 -310 -188 -312 -187 -2 2 4 18 13 36
14 28 62 62 295 203 154 92 286 173 295 180 11 8 15 23 13 43 l-3 31 -270
-165z"/>
<path d="M2173 881 l-732 -446 44 -8 43 -9 676 412 c649 396 675 414 691 452
9 22 15 42 13 43 -2 2 -332 -198 -735 -444z m672 369 c-10 -11 -27 -22 -38
-26 -11 -4 -25 -10 -31 -15 -22 -19 -136 -88 -136 -83 0 2 -6 0 -12 -6 -26
-22 -167 -110 -176 -110 -5 0 -15 -7 -22 -15 -7 -9 -15 -13 -18 -10 -3 2 -10
-2 -16 -10 -6 -7 -38 -28 -71 -46 -52 -28 -139 -82 -198 -122 -10 -6 -22 -11
-27 -10 -4 1 -16 -7 -25 -17 -10 -11 -22 -20 -26 -20 -4 0 -35 -18 -68 -40
-33 -22 -62 -40 -65 -40 -5 0 -157 -93 -196 -121 -33 -22 -170 -102 -192 -111
-10 -4 -18 -3 -18 2 0 6 5 10 10 10 6 0 41 20 78 44 100 65 203 126 213 126 5
0 9 3 9 8 0 4 17 16 38 27 20 10 49 28 65 38 15 10 27 16 27 12 0 -3 10 4 23
15 12 12 51 38 87 58 36 20 67 40 68 44 2 4 8 6 13 2 5 -3 9 0 9 5 0 6 5 11
12 11 6 0 19 6 27 14 15 14 59 41 201 122 36 21 67 41 70 45 3 3 21 14 40 24
19 10 37 21 40 25 3 4 17 13 31 21 47 25 103 58 189 113 92 58 113 67 85 36z"/>
<path d="M2819 1156 c-11 -11 -301 -188 -1184 -725 -17 -10 -9 -11 45 -8 l65
4 514 314 c498 304 515 316 549 367 34 54 39 73 11 48z m-59 -81 c-7 -8 -18
-15 -25 -15 -8 0 -15 -3 -17 -8 -4 -9 -152 -97 -157 -93 -2 1 -7 -1 -10 -6 -9
-13 -65 -51 -81 -55 -16 -3 -31 -14 -61 -40 -10 -10 -22 -18 -27 -18 -4 0 -24
-11 -45 -25 -20 -14 -37 -22 -37 -18 0 4 -4 4 -8 -2 -20 -28 -162 -111 -162
-95 0 6 8 14 18 17 9 4 36 20 58 35 23 15 47 28 53 28 6 0 11 3 11 8 0 4 17
16 38 27 20 11 39 22 42 25 3 3 52 34 110 69 58 34 112 66 120 72 8 5 24 13
35 18 11 5 31 18 44 30 13 12 29 21 35 21 6 1 24 12 41 25 31 26 46 26 25 0z
m-655 -402 c-34 -25 -55 -34 -55 -24 0 11 63 52 70 45 3 -3 -4 -12 -15 -21z
m-69 -41 c-3 -6 -27 -21 -53 -35 -27 -14 -71 -40 -100 -58 -111 -72 -144 -90
-155 -87 -6 2 60 47 148 100 87 53 161 94 163 93 1 -2 0 -8 -3 -13z"/>
<path d="M2685 951 c-12 -11 -751 -463 -795 -486 -51 -27 -30 -26 69 1 84 23
121 42 360 189 237 145 273 170 330 234 35 39 59 71 54 71 -5 0 -13 -4 -18 -9z
m-105 -105 c0 -6 -150 -101 -200 -126 -25 -12 -47 -26 -50 -29 -3 -4 -41 -29
-85 -55 -44 -27 -108 -67 -142 -88 -34 -22 -68 -38 -75 -35 -8 3 -4 9 12 16
14 7 52 30 85 52 33 22 72 45 88 52 15 6 27 15 27 19 0 4 5 8 12 8 6 0 26 11
44 25 18 14 36 25 41 25 4 0 55 31 113 70 92 61 130 80 130 66z"/>
</g>
</svg>
